<svg width="1200" height="900" viewBox="0 0 1200 900" fill="none" xmlns="http://www.w3.org/2000/svg">
  <rect width="1200" height="900" rx="48" fill="url(#bg)"/>
  <circle cx="1005" cy="140" r="124" fill="white" fill-opacity="0.1"/>
  <circle cx="171" cy="730" r="158" fill="#FFA725" fill-opacity="0.18"/>
  <circle cx="952" cy="714" r="108" fill="white" fill-opacity="0.08"/>
  <rect x="155" y="145" width="890" height="610" rx="36" fill="white" fill-opacity="0.94"/>
  <rect x="220" y="205" width="370" height="490" rx="28" fill="#F6FAFD"/>
  <rect x="250" y="242" width="188" height="22" rx="11" fill="#0D8ECF" fill-opacity="0.16"/>
  <rect x="250" y="292" width="220" height="44" rx="14" fill="#0D8ECF" fill-opacity="0.1"/>
  <rect x="250" y="356" width="310" height="18" rx="9" fill="#D8E7F0"/>
  <rect x="250" y="398" width="290" height="18" rx="9" fill="#D8E7F0"/>
  <rect x="250" y="440" width="248" height="18" rx="9" fill="#D8E7F0"/>
  <rect x="250" y="500" width="130" height="120" rx="24" fill="#0D8ECF" fill-opacity="0.12"/>
  <path d="M286 563.5L320.5 598L388 530.5" stroke="#0D8ECF" stroke-width="20" stroke-linecap="round" stroke-linejoin="round"/>
  <rect x="640" y="205" width="340" height="230" rx="30" fill="#0D8ECF"/>
  <rect x="680" y="255" width="140" height="18" rx="9" fill="white" fill-opacity="0.8"/>
  <rect x="680" y="293" width="208" height="18" rx="9" fill="white" fill-opacity="0.3"/>
  <rect x="680" y="336" width="102" height="48" rx="16" fill="#FFA725"/>
  <rect x="812" y="336" width="120" height="48" rx="16" fill="white" fill-opacity="0.16"/>
  <rect x="640" y="468" width="340" height="227" rx="30" fill="#FFF7EC"/>
  <path d="M703 617C703 566.19 744.19 525 795 525H825C875.81 525 917 566.19 917 617V617H703V617Z" fill="#FFA725" fill-opacity="0.28"/>
  <circle cx="811" cy="575" r="48" fill="#FFA725" fill-opacity="0.9"/>
  <path d="M759 640H925" stroke="#E4D2B3" stroke-width="18" stroke-linecap="round"/>
  <path d="M731 667H897" stroke="#E4D2B3" stroke-width="18" stroke-linecap="round"/>
  <path d="M262 178L317 126" stroke="#0D8ECF" stroke-width="18" stroke-linecap="round"/>
  <path d="M937 169L992 117" stroke="#FFA725" stroke-width="18" stroke-linecap="round"/>
  <defs>
    <linearGradient id="bg" x1="121" y1="61" x2="1106" y2="863" gradientUnits="userSpaceOnUse">
      <stop stop-color="#0A5A8A"/>
      <stop offset="0.53" stop-color="#0D8ECF"/>
      <stop offset="1" stop-color="#2EA8DC"/>
    </linearGradient>
  </defs>
</svg>
